<svg width="40" height="40" viewBox="0 0 40 40" fill="none" xmlns="http://www.w3.org/2000/svg">
  <defs>
    <linearGradient id="logoGradient" x1="0%" y1="0%" x2="100%" y2="100%">
      <stop offset="0%" style="stop-color:#3B82F6;stop-opacity:1" />
      <stop offset="100%" style="stop-color:#1D4ED8;stop-opacity:1" />
    </linearGradient>
  </defs>
  
  <!-- Shopping bag body -->
  <path d="M8 12C8 9.79086 9.79086 8 12 8H28C30.2091 8 32 9.79086 32 12V28C32 30.2091 30.2091 32 28 32H12C9.79086 32 8 30.2091 8 28V12Z" fill="url(#logoGradient)" stroke="#1E40AF" stroke-width="1"/>
  
  <!-- Shopping bag handles -->
  <path d="M14 12V8C14 5.79086 15.7909 4 18 4H22C24.2091 4 26 5.79086 26 8V12" stroke="url(#logoGradient)" stroke-width="2" fill="none" stroke-linecap="round"/>
  
  <!-- Tech elements - circuit lines -->
  <path d="M12 16H28M12 20H24M12 24H20" stroke="white" stroke-width="1.5" stroke-linecap="round" opacity="0.8"/>
  
  <!-- Small tech icon -->
  <circle cx="26" cy="18" r="2" fill="white" opacity="0.9"/>
  <path d="M25 18H27M26 17V19" stroke="url(#logoGradient)" stroke-width="0.5"/>
</svg>

